<?xml version="1.0" encoding="UTF-8"?>
<svg width="980px" height="400px" viewBox="0 0 980 400" version="1.1" xmlns="http://www.w3.org/2000/svg" xmlns:xlink="http://www.w3.org/1999/xlink">
    <!-- Generator: Sketch 39.1 (31720) - http://www.bohemiancoding.com/sketch -->
    <title>Slice 1</title>
    <desc>Created with Sketch.</desc>
    <defs>
        <polygon id="path-1" points="127.299363 0 254.598726 73.4963215 254.598726 220.488964 127.299363 293.985286 6.39488462e-14 220.488964 -1.77635684e-14 73.4963215"></polygon>
    </defs>
    <g id="Page-1" stroke="none" stroke-width="1" fill="none" fill-rule="evenodd">
        <g id="github-banner" transform="translate(-16.000000, -21.000000)">
            <polygon id="Polygon" stroke="#C0C5CE" points="506.299363 74 633.598726 147.496321 633.598726 294.488964 506.299363 367.985286 379 294.488964 379 147.496321"></polygon>
            <g id="Group" transform="translate(379.000000, 74.000000)">
                <mask id="mask-2" fill="white">
                    <use xlink:href="#path-1"></use>
                </mask>
                <g id="Mask"></g>
                <g mask="url(#mask-2)">
                    <g transform="translate(57.000000, 66.000000)">
                        <path d="M140.781951,94.5757355 L87.2657542,55.5473954 L140.781951,16.5190554 L129.676516,0 L80.0710885,36.1769909 L80.0710885,28.6512663 L60.7089454,28.6512663 L60.7089454,36.1769909 L11.1054352,0 L0,16.5190554 L53.5123627,55.5453987 L0,94.5737387 L11.1054352,111.092794 L60.7089454,74.9138065 L60.7089454,118.416848 L25.1995417,118.416848 C11.2818032,118.418844 0,130.165684 0,144.662039 C0,159.158393 11.2818032,170.909226 25.1995417,170.909226 C39.1153632,170.909226 50.3971664,159.158393 50.3971664,144.662039 C50.3971664,138.294425 48.2155705,132.457945 44.5961916,127.911361 L60.7108625,127.911361 L60.7108625,229.674307 L80.0730056,229.674307 L80.0730056,127.913358 L96.1915105,127.913358 C92.5682976,132.457945 90.3886187,138.294425 90.3886187,144.664035 C90.3886187,159.16039 101.672339,170.911223 115.586243,170.911223 C129.502065,170.911223 140.785785,159.16039 140.785785,144.664035 C140.785785,130.167681 129.502065,118.418844 115.586243,118.418844 L80.0710885,118.418844 L80.0710885,74.9158032 L129.676516,111.094791 L140.781951,94.5757355 Z" id="Shape" fill="#C0C5CE"></path>
                        <path d="M115.184568,134.975369 C120.531203,134.975369 124.86564,139.490006 124.86564,145.058922 C124.86564,150.627838 120.531203,155.142474 115.184568,155.142474 C109.837933,155.142474 105.503497,150.627838 105.503497,145.058922 C105.503497,139.490006 109.837933,134.975369 115.184568,134.975369 L115.184568,134.975369 Z" id="Path" fill="#EAC986"></path>
                        <path d="M25.4592124,155.142474 C20.112577,155.142474 15.7762238,150.627838 15.7762238,145.058922 C15.7762238,139.490006 20.112577,134.975369 25.4592124,134.975369 C30.8058478,134.975369 35.1402839,139.490006 35.1402839,145.058922 C35.1402839,150.627838 30.8058478,155.142474 25.4592124,155.142474 L25.4592124,155.142474 Z" id="Path" fill="#BF616A"></path>
                    </g>
                </g>
            </g>
        </g>
    </g>
</svg>