<?xml version="1.0" encoding="UTF-8"?>
<svg width="980px" height="400px" viewBox="0 0 980 400" version="1.1" xmlns="http://www.w3.org/2000/svg" xmlns:xlink="http://www.w3.org/1999/xlink">
    <!-- Generator: Sketch 39 (31667) - http://www.bohemiancoding.com/sketch -->
    <title>Slice 1</title>
    <desc>Created with Sketch.</desc>
    <defs></defs>
    <g id="Page-1" stroke="none" stroke-width="1" fill="none" fill-rule="evenodd">
        <g id="github-banner" transform="translate(-16.000000, -21.000000)">
            <circle id="Oval-1-Copy" stroke="#C0C5CE" cx="506" cy="221" r="128"></circle>
            <path d="M566.515899,258.761213 L577.778858,241.994371 L523.503566,202.380606 L577.778858,162.766841 L566.515899,146 L516.206849,182.719646 L516.206849,175.081035 L496.570065,175.081035 L496.570065,182.719646 L446.262959,146 L435,162.766841 L489.271403,202.37858 L435,241.992345 L446.262959,258.759186 L496.570065,222.037514 L496.570065,266.1931 L460.556982,266.1931 C446.441829,266.195127 435,278.118169 435,292.831969 C435,307.545769 446.441829,319.472865 460.556982,319.472865 C474.670191,319.472865 486.11202,307.545769 486.11202,292.831969 C486.11202,286.368841 483.899479,280.444814 480.228762,275.830031 L496.572009,275.830031 L496.572009,348.669421 L516.208793,348.669421 L516.208793,275.832058 L532.555929,275.832058 C528.881323,280.444814 526.670727,286.368841 526.670727,292.833996 C526.670727,307.547796 538.1145,319.474891 552.225765,319.474891 C566.338974,319.474891 577.782747,307.547796 577.782747,292.833996 C577.782747,278.120196 566.338974,266.195127 552.225765,266.195127 L516.206849,266.195127 L516.206849,222.03954 L566.515899,258.761213 L566.515899,258.761213 Z" id="Shape" fill="#C0C5CE"></path>
            <path d="M551.818392,283 C557.240866,283 561.636783,287.582356 561.636783,293.234806 C561.636783,298.887256 557.240866,303.469612 551.818392,303.469612 C546.395918,303.469612 542,298.887256 542,293.234806 C542,287.582356 546.395918,283 551.818392,283 L551.818392,283 Z" id="Path" fill="#EAC986"></path>
            <path d="M460.820336,303.469612 C455.397862,303.469612 451,298.887256 451,293.234806 C451,287.582356 455.397862,283 460.820336,283 C466.24281,283 470.638728,287.582356 470.638728,293.234806 C470.638728,298.887256 466.24281,303.469612 460.820336,303.469612 L460.820336,303.469612 Z" id="Path" fill="#BF616A"></path>
        </g>
    </g>
</svg>